<svg width="547" height="547" viewBox="0 0 547 547" fill="none" xmlns="http://www.w3.org/2000/svg">
<circle cx="273.5" cy="273.5" r="273.5" fill="#FD9300"/>
<path d="M433 371.428V421.566C432.979 430.427 429.445 438.919 423.171 445.184C416.896 451.45 408.392 454.979 399.519 455H148.481C139.607 454.979 131.104 451.45 124.829 445.184C118.555 438.919 115.021 430.427 115 421.566V371.428C115.063 349.282 123.9 328.062 139.581 312.402C155.262 296.743 176.512 287.918 198.688 287.855H349.312C371.488 287.918 392.738 296.743 408.419 312.402C424.1 328.062 432.937 349.282 433 371.428Z" fill="white"/>
<path d="M115 127.79L115 177.928C115.063 200.073 123.9 221.294 139.581 236.953C155.262 252.612 176.512 261.437 198.688 261.5H349.312L286.128 217.242C258.845 198.132 258.845 157.723 286.128 138.613L349.312 94.3553H148.481C130.015 94.3553 115 109.324 115 127.79Z" fill="white"/>
</svg>
